<svg width="1582" height="1080" viewBox="0 0 1582 1080" fill="none" xmlns="http://www.w3.org/2000/svg">
<path opacity="0.1" d="M1581.25 1176.47L818.331 1939.15V752.612V751.862H817.581H-422.173L357.511 -18.25H1581.25V1176.47Z" stroke="white" stroke-width="1.5"/>
<path opacity="0.1818" d="M1537.13 1121.32L834.157 1824.54V730.552V729.802H833.407H-309.477L409.064 20.1143H1537.13V1121.32Z" stroke="white" stroke-width="1.5"/>
<path opacity="0.2636" d="M1493.01 1066.41L849.742 1709.68V708.733V707.983H848.992H-196.54L460.857 58.7197H1493.01V1066.41Z" stroke="white" stroke-width="1.5"/>
<path opacity="0.3455" d="M1448.89 1011.26L865.328 1594.83V686.912V686.162H864.578H-83.844L512.409 97.084H1448.89V1011.26Z" stroke="white" stroke-width="1.5"/>
<path opacity="0.4273" d="M1404.77 956.114L880.914 1479.97V664.852V664.102H880.164H28.8532L564.202 135.448H1404.77V956.114Z" stroke="white" stroke-width="1.5"/>
<path opacity="0.5091" d="M1360.65 901.204L896.739 1365.12V643.032V642.282H895.989H141.549L615.755 173.813H1360.65V901.204Z" stroke="white" stroke-width="1.5"/>
<path opacity="0.5909" d="M1316.53 846.053L912.325 1250.26V621.21V620.46H911.575H254.247L667.547 212.416H1316.53V846.053Z" stroke="white" stroke-width="1.5"/>
<path opacity="0.6727" d="M1272.41 790.905L927.911 1135.41V599.152V598.402H927.161H367.183L719.1 250.782H1272.41V790.905Z" stroke="white" stroke-width="1.5"/>
<path opacity="0.7545" d="M1228.29 735.756L943.496 1020.55V577.332V576.582H942.746H479.878L770.653 289.147H1228.29V735.756Z" stroke="white" stroke-width="1.5"/>
<path opacity="0.8364" d="M1184.17 680.848L959.322 905.701V555.514V554.764H958.572H592.576L822.445 327.754H1184.17V680.848Z" stroke="white" stroke-width="1.5"/>
<path opacity="0.9182" d="M1140.05 625.699L974.908 790.846V533.454V532.704H974.158H705.273L873.998 366.119H1140.05V625.699Z" stroke="white" stroke-width="1.5"/>
</svg>
